<svg id="clock_1" data-name="clock 1" xmlns="http://www.w3.org/2000/svg" width="16" height="16" viewBox="0 0 16 16">
  <path id="Vector" d="M14.316,4.21a.667.667,0,0,0-.31.89,6.6,6.6,0,0,1,.66,2.9A6.667,6.667,0,1,1,8,1.333a6.586,6.586,0,0,1,4.139,1.438.667.667,0,1,0,.83-1.044A8,8,0,1,0,16,8a7.918,7.918,0,0,0-.793-3.48A.666.666,0,0,0,14.316,4.21Z" transform="translate(0)" fill="#7c8290"/>
  <path id="Vector-2" data-name="Vector" d="M.667,0A.667.667,0,0,0,0,.667V5.333A.667.667,0,0,0,.667,6H4A.667.667,0,1,0,4,4.667H1.333v-4A.667.667,0,0,0,.667,0Z" transform="translate(7.333 2.667)" fill="#7c8290"/>
</svg>
